<svg xmlns="http://www.w3.org/2000/svg" xmlns:xlink="http://www.w3.org/1999/xlink" width="121" height="27.055" viewBox="0 0 121 27.055"><defs><style>.a{fill:none;}.b{clip-path:url(#a);}.c{fill:#fff;}</style><clipPath id="a"><rect class="a" width="121" height="27.055"/></clipPath></defs><g class="b" transform="translate(0 0)"><path class="c" d="M12.181,3.633a6.52,6.52,0,0,1,.556,2.821V7.779h-3.8V6.454a2.488,2.488,0,0,0-.769-2.009,2.719,2.719,0,0,0-1.8-.641,2.719,2.719,0,0,0-1.8.641A2.488,2.488,0,0,0,3.8,6.454V20.473a2.488,2.488,0,0,0,.769,2.009,2.719,2.719,0,0,0,1.8.641,2.719,2.719,0,0,0,1.8-.641,2.488,2.488,0,0,0,.769-2.009v-5L5.9,12.138h6.8v8.335a6.587,6.587,0,0,1-.556,2.864,5.938,5.938,0,0,1-1.453,2.009,6.169,6.169,0,0,1-2.052,1.2,7.329,7.329,0,0,1-2.308.427,6.3,6.3,0,0,1-2.308-.427,6.169,6.169,0,0,1-2.052-1.2A5.416,5.416,0,0,1,.513,23.337,7.294,7.294,0,0,1,0,20.473V6.5A6.52,6.52,0,0,1,.556,3.676,5.938,5.938,0,0,1,2.009,1.667,6.169,6.169,0,0,1,4.06.47,7.329,7.329,0,0,1,6.368.043,6.3,6.3,0,0,1,8.676.47a5.03,5.03,0,0,1,2.009,1.154A5.509,5.509,0,0,1,12.181,3.633ZM23.636,27.055h3.8V.556h-3.8Zm49.238-25.3A5.837,5.837,0,0,0,70.95.47,6.346,6.346,0,0,0,68.514,0a6.962,6.962,0,0,0-2.522.47,5.6,5.6,0,0,0-1.966,1.282,5.837,5.837,0,0,0-1.282,1.923,6.343,6.343,0,0,0-.427,2.436V20.687a7.132,7.132,0,0,0,.556,3.035,5.2,5.2,0,0,0,1.453,1.923,5.969,5.969,0,0,0,2.009,1.026,7.871,7.871,0,0,0,2.18.3,5.406,5.406,0,0,0,2.351-.513,6.712,6.712,0,0,0,1.923-1.325,5.6,5.6,0,0,0,1.282-1.966,6.235,6.235,0,0,0,.47-2.351V19.191h-3.8v1.282a3.647,3.647,0,0,1-.214,1.282,1.692,1.692,0,0,1-.6.812,2.318,2.318,0,0,1-.769.427,2.9,2.9,0,0,1-.812.128,2,2,0,0,1-1.8-.769,3.394,3.394,0,0,1-.513-1.923V6.881a4.89,4.89,0,0,1,.47-2.223c.3-.6.94-.855,1.881-.855a2.013,2.013,0,0,1,1.71.812,3.067,3.067,0,0,1,.641,1.923V7.822h3.8v-1.5a7.374,7.374,0,0,0-.47-2.564A5.588,5.588,0,0,0,72.874,1.752ZM116.982.214l-3.035,10.557h-.085L110.828.214H106.81l5.172,15.3v11.2h3.8v-11.2L121,.214ZM85.14,26.713h3.8V.214h-3.8Zm8.505-14.575H90.611l3.035,3.334V26.713h3.8V.214h-3.8ZM47.913,15.6,42.356.214h-3.8V26.756h3.8V11.412l5.514,15.3h3.8V.214h-3.8V15.6Z"/></g></svg>